[img]http://i.imgur.com/03KAQ.jpg[/img]


[code]

Dredd.2012.720p.BDRip.XViD.AC3-26k

 
http://www.imdb.com/title/tt1343727


Plot:

In a violent, futuristic city where the police have the authority to act as judge, jury and executioner, a cop 
teams with a trainee to take down a gang that deals the reality-altering drug, SLO-MO.

Sources - VIDEO: Dredd.2012.1080p.3D+2D.Blu-ray.Re-encoded.AVC.DTS-HDMA7.1-3DT ..... thanks .... :P
          AUDIO: Dredd.2012.1080p.3D+2D.Blu-ray.Re-encoded.AVC.DTS-HDMA7.1-3DT ..... thanks .... :P

Format                                   : AVI
Format/Info                              : Audio Video Interleave
Format profile                           : OpenDML
File size                                : 2.78 GiB
Duration                                 : 1h 35mn
Overall bit rate                         : 4 150 Kbps
Writing library                          : VirtualDub build 32839/release

Video
ID                                       : 0
Format                                   : MPEG-4 Visual
Format profile                           : Advanced Simple@L5
Format settings, BVOP                    : 2
Format settings, QPel                    : No
Format settings, GMC                     : No warppoints
Format settings, Matrix                  : Default (H.263)
Codec ID                                 : XVID
Codec ID/Hint                            : XviD
Duration                                 : 1h 35mn
Bit rate                                 : 3 500 Kbps
Width                                    : 1 280 pixels
Height                                   : 528 pixels
Display aspect ratio                     : 2.40:1
Frame rate                               : 23.976 fps
Color space                              : YUV
Chroma subsampling                       : 4:2:0
Bit depth                                : 8 bits
Scan type                                : Progressive
Compression mode                         : Lossy
Bits/(Pixel*Frame)                       : 0.216
Stream size                              : 2.34 GiB (84%)
Writing library                          : XviD 1.2.1 (UTC 2008-12-04)

Audio
ID                                       : 1
Format                                   : AC-3
Format/Info                              : Audio Coding 3
Mode extension                           : CM (complete main)
Format settings, Endianness              : Big
Codec ID                                 : 2000
Duration                                 : 1h 35mn
Bit rate mode                            : Constant
Bit rate                                 : 640 Kbps
Channel(s)                               : 6 channels
Channel positions                        : Front: L C R, Side: L R, LFE
Sampling rate                            : 48.0 KHz
Bit depth                                : 16 bits
Compression mode                         : Lossy
Stream size                              : 439 MiB (15%)
Alignment                                : Split accross interleaves
Interleave, duration                     : 42 ms (1.00 video frame)
Interleave, preload duration             : 500 ms

Notes -

Took the BD made a script to make magic happen and this is the outcome.. enjoy

[/code]

Screens:

[img]http://i.imgur.com/Um7iV.jpg[/img]
[img]http://i.imgur.com/bPPdl.jpg[/img]
[img]http://i.imgur.com/Vb2EI.jpg[/img]
[img]http://i.imgur.com/UjEFM.jpg[/img]
[img]http://i.imgur.com/cZc0Y.jpg[/img]
[img]http://imageshack.us/a/img577/4417/76236935.png[/img]
[img]http://imageshack.us/a/img259/9952/17842892.png[/img]
[img]http://imageshack.us/a/img824/3294/11131723.png[/img]
[img]http://imageshack.us/a/img825/6351/68298515.png[/img]
[img]http://imageshack.us/a/img33/9341/20727767.png[/img]

Greetz:
XtremeEncode|CM8|RX|VISION|HDSCENE|xTriLL|ADTRG|CRYS|REMIXHD|HS|Tommiecook
BIDA|RX|REFILL|INSPiRAL|AXED|HOPE|Anonymous|GooN|NOIR|Blackjesus|Gabroo Punjab Deh
|UNiQUE|RESiSTANCE|TRiNiTY|LEGION

To all the people who have helped me, you know who you are

Anything to offer email us @: 26k@hushmail.me 